<?xml version="1.0" encoding="UTF-8"?>
<svg version="1.1" xmlns="http://www.w3.org/2000/svg" width="204" height="192">
<path d="M0 0 C67.32 0 134.64 0 204 0 C204 63.36 204 126.72 204 192 C136.68 192 69.36 192 0 192 C0 128.64 0 65.28 0 0 Z " fill="#F6F6F6" transform="translate(0,0)"/>
<path d="M0 0 C12.21 0 24.42 0 37 0 C37.32362745 7.29959686 37.60127892 14.57390857 37.76904297 21.875 C37.83899711 24.35079649 37.93420541 26.82602402 38.05615234 29.29980469 C39.09588291 50.95066479 39.09588291 50.95066479 33.89160156 57.83496094 C30.59801115 61.43967525 27.08910491 64.33889542 23 67 C22.34 67 21.68 67 21 67 C20.505 68.485 20.505 68.485 20 70 C15.68181818 74.77272727 15.68181818 74.77272727 12 76 C12 76.66 12 77.32 12 78 C9.55026011 80.97338073 6.73457419 83.53505294 2.96440315 84.54563522 C0.69532869 84.73487371 -1.50486921 84.74343458 -3.78100586 84.68115234 C-4.63058868 84.6820285 -5.48017151 84.68290466 -6.35549927 84.68380737 C-9.14290723 84.67965188 -11.9278602 84.63309926 -14.71484375 84.5859375 C-16.65538722 84.57473804 -18.59594774 84.5662014 -20.53651428 84.56021118 C-25.62834027 84.53737186 -30.71912895 84.47849088 -35.81054688 84.4119873 C-41.01222707 84.350459 -46.21407592 84.32317366 -51.41601562 84.29296875 C-61.61113125 84.22874286 -71.80547915 84.12642278 -82 84 C-75.83002574 70.84227373 -59.24548079 52.10585952 -45.50317383 47.08837891 C-35.94949796 44.80627076 -26.19050508 45.78268769 -16.52885437 46.8072052 C-12.47299427 47.16316679 -9.8798276 47.05680134 -6.50390625 44.69921875 C-4.02096928 42.27562108 -4.02096928 42.27562108 -3 40 C-2.34 40 -1.68 40 -1 40 C-0.67 26.8 -0.34 13.6 0 0 Z " fill="#050505" transform="translate(132,78)"/>
<path d="M0 0 C5.15413041 0.23844512 10.31096061 0.34097732 15.46905518 0.45623779 C25.52875161 0.70044167 35.57664852 1.09105264 45.6272583 1.57928467 C44.06844109 5.07369481 42.20025202 6.91240562 39.1975708 9.30584717 C35.42622685 12.36420072 32.27685815 15.96838527 29.1272583 19.64178467 C26.50745599 22.67643637 23.78631251 25.10326921 20.6272583 27.57928467 C19.5444458 28.94053467 19.5444458 28.94053467 18.4397583 30.32928467 C17.8416333 31.07178467 17.2435083 31.81428467 16.6272583 32.57928467 C15.9672583 32.57928467 15.3072583 32.57928467 14.6272583 32.57928467 C14.2972583 33.89928467 13.9672583 35.21928467 13.6272583 36.57928467 C12.57336914 36.60434082 11.51947998 36.62939697 10.43365479 36.6552124 C6.4993001 36.74984758 2.56509905 36.84992806 -1.36907959 36.95159912 C-3.06728505 36.99473687 -4.76552799 37.0364255 -6.46380615 37.07659912 C-8.91403468 37.1348181 -11.36407817 37.1983597 -13.81414795 37.26287842 C-14.94113853 37.28794716 -14.94113853 37.28794716 -16.09089661 37.31352234 C-20.57759753 37.43777388 -24.96302509 37.67116763 -29.3727417 38.57928467 C-31.68882044 41.03561539 -31.68882044 41.03561539 -33.3727417 43.57928467 C-34.0327417 43.57928467 -34.6927417 43.57928467 -35.3727417 43.57928467 C-36.31007463 48.40271319 -36.58103775 53.14116467 -36.68914795 58.04022217 C-36.70779907 58.741875 -36.7264502 59.44352783 -36.7456665 60.16644287 C-36.81344608 62.7622744 -36.87392356 65.35829247 -36.9352417 67.95428467 C-37.0796167 73.77053467 -37.2239917 79.58678467 -37.3727417 85.57928467 C-49.2527417 85.57928467 -61.1327417 85.57928467 -73.3727417 85.57928467 C-73.55668575 78.01458577 -73.71582955 70.45767307 -73.81219482 62.89251709 C-73.85236781 60.32096031 -73.90691843 57.74958558 -73.97625732 55.1786499 C-74.07357232 51.47710238 -74.11873262 47.77797393 -74.1539917 44.07537842 C-74.19528198 42.93032333 -74.23657227 41.78526825 -74.27911377 40.60551453 C-74.28351662 32.73177984 -74.28351662 32.73177984 -71.86054993 29.66575623 C-70.50549893 28.54328963 -69.10818348 27.47061295 -67.68075562 26.4417572 C-64.93248721 24.22401736 -63.20170556 21.79098336 -61.15765381 18.91497803 C-44.52684863 -2.72279814 -25.66283071 -1.31542166 0 0 Z " fill="#020202" transform="translate(108.37274169921875,28.42071533203125)"/>
<path d="M0 0 C3.02252105 1.97895589 4.51450262 3.66730132 6.16796875 6.90234375 C7.15012645 12.46790407 7.72784207 18.04880679 4.73046875 23.08984375 C1.23358828 26.50901577 -1.33604821 28.7374521 -6.26953125 29.08984375 C-6.90117188 29.16332031 -7.5328125 29.23679687 -8.18359375 29.3125 C-12.21477859 29.60691238 -13.75107401 29.50225292 -17.01953125 26.90234375 C-18.13328125 25.51015625 -18.13328125 25.51015625 -19.26953125 24.08984375 C-20.03265625 23.38859375 -20.79578125 22.68734375 -21.58203125 21.96484375 C-24.22098661 17.46884573 -24.11930397 13.16669102 -23.26953125 8.08984375 C-19.09816042 -1.19269292 -9.33441891 -3.74340724 0 0 Z " fill="#05FBB5" transform="translate(110.26953125,81.91015625)"/>
<path d="M0 0 C2.16189853 3.24284779 2.24626755 4.10096221 2.22705078 7.83862305 C2.22689972 8.8194133 2.22674866 9.80020355 2.22659302 10.81071472 C2.21627045 11.86704605 2.20594788 12.92337738 2.1953125 14.01171875 C2.1924826 15.09508011 2.18965271 16.17844147 2.18673706 17.29463196 C2.17553091 20.75903308 2.15042534 24.22317685 2.125 27.6875 C2.11497077 30.03450148 2.10584482 32.381507 2.09765625 34.72851562 C2.0772907 40.4858563 2.03814225 46.24263965 2 52 C12.89 52 23.78 52 35 52 C35 40.78 35 29.56 35 18 C35.33 18 35.66 18 36 18 C36 29.88 36 41.76 36 54 C24.12 54 12.24 54 0 54 C0 36.18 0 18.36 0 0 Z " fill="#444444" transform="translate(35,60)"/>
<path d="M0 0 C3.02252105 1.97895589 4.51450262 3.66730132 6.16796875 6.90234375 C7.15012645 12.46790407 7.72784207 18.04880679 4.73046875 23.08984375 C1.23358828 26.50901577 -1.33604821 28.7374521 -6.26953125 29.08984375 C-6.924375 29.14011719 -7.57921875 29.19039062 -8.25390625 29.2421875 C-13.80339913 29.4953578 -13.80339913 29.4953578 -16.01171875 27.57421875 C-16.42679687 27.084375 -16.841875 26.59453125 -17.26953125 26.08984375 C-15.91408203 26.15945312 -15.91408203 26.15945312 -14.53125 26.23046875 C-13.35175781 26.2665625 -12.17226562 26.30265625 -10.95703125 26.33984375 C-9.78527344 26.38625 -8.61351563 26.43265625 -7.40625 26.48046875 C-4.17269907 26.44183407 -4.17269907 26.44183407 -2.6015625 24.07421875 C-2.16199219 23.419375 -1.72242187 22.76453125 -1.26953125 22.08984375 C0.05046875 22.08984375 1.37046875 22.08984375 2.73046875 22.08984375 C4.38620297 13.95294287 4.38620297 13.95294287 2.73046875 6.08984375 C1.49296875 5.59484375 1.49296875 5.59484375 0.23046875 5.08984375 C-2.26953125 4.08984375 -2.26953125 4.08984375 -3.26953125 2.08984375 C-9.25535152 1.58975751 -9.25535152 1.58975751 -14.70703125 3.58984375 C-15.22265625 4.08484375 -15.73828125 4.57984375 -16.26953125 5.08984375 C-16.92953125 5.08984375 -17.58953125 5.08984375 -18.26953125 5.08984375 C-20.24300004 10.02351572 -20.61869302 13.85241716 -20.26953125 19.08984375 C-19.60953125 19.74984375 -18.94953125 20.40984375 -18.26953125 21.08984375 C-18.59953125 22.07984375 -18.92953125 23.06984375 -19.26953125 24.08984375 C-21.78619478 21.80911743 -23.12365299 19.92767552 -23.7109375 16.5546875 C-23.95627179 10.80120269 -23.35618957 6.97701429 -19.75390625 2.4296875 C-14.55754724 -2.26071024 -6.33914239 -2.5422034 0 0 Z " fill="#36EBB7" transform="translate(110.26953125,81.91015625)"/>
<path d="M0 0 C2.0625 0.4375 2.0625 0.4375 4 1 C2.7934375 2.175625 2.7934375 2.175625 1.5625 3.375 C-2.46756267 7.50335688 -2.44795618 10.47610077 -2.42578125 16.09375 C-1.74544535 20.73751061 0.68375132 23.78684714 4 27 C6.76452033 28.38226016 9.0461363 28.09525387 12.125 28.0625 C13.22070312 28.05347656 14.31640625 28.04445313 15.4453125 28.03515625 C16.28835937 28.02355469 17.13140625 28.01195313 18 28 C18 28.99 18 29.98 18 31 C13.38 31 8.76 31 4 31 C3.67 30.01 3.34 29.02 3 28 C1.67532254 27.3162955 0.34136367 26.65035814 -1 26 C-1.66 25.01 -2.32 24.02 -3 23 C-3.99 22.67 -4.98 22.34 -6 22 C-6.13559675 19.43571485 -6.23433188 16.87864784 -6.3125 14.3125 C-6.35439453 13.59126953 -6.39628906 12.87003906 -6.43945312 12.12695312 C-6.53683218 7.86175043 -6.38846696 6.46751906 -3.54296875 3.04296875 C-2.70378906 2.36878906 -1.86460938 1.69460937 -1 1 C-0.67 0.67 -0.34 0.34 0 0 Z " fill="#C3FCF0" transform="translate(90,82)"/>
<path d="M0 0 C1.74410156 0.05607422 1.74410156 0.05607422 3.5234375 0.11328125 C5.37195313 0.16548828 5.37195313 0.16548828 7.2578125 0.21875 C11.82550958 0.47850101 16.36072691 0.84027021 20.8984375 1.42578125 C20.8984375 1.75578125 20.8984375 2.08578125 20.8984375 2.42578125 C23.8684375 2.75578125 26.8384375 3.08578125 29.8984375 3.42578125 C29.8984375 3.75578125 29.8984375 4.08578125 29.8984375 4.42578125 C17.6884375 4.42578125 5.4784375 4.42578125 -7.1015625 4.42578125 C-3.1015625 0.42578125 -3.1015625 0.42578125 0 0 Z " fill="#D9D9D9" transform="translate(91.1015625,121.57421875)"/>
<path d="M0 0 C11.55 0 23.1 0 35 0 C35 0.99 35 1.98 35 3 C30.35544096 3.16771068 25.71071045 3.32825993 21.06567383 3.48217773 C19.48552796 3.53554679 17.90544689 3.59087216 16.32543945 3.64819336 C14.05434137 3.73024686 11.78310314 3.80526189 9.51171875 3.87890625 C8.80536789 3.90594131 8.09901703 3.93297638 7.3712616 3.96083069 C4.26132061 4.05545931 1.98120616 3.99373539 -1 3 C-0.67 2.01 -0.34 1.02 0 0 Z " fill="#FDFDFD" transform="translate(85,66)"/>
<path d="M0 0 C2.0625 0.4375 2.0625 0.4375 4 1 C2.7934375 2.175625 2.7934375 2.175625 1.5625 3.375 C-2.16845487 7.19695377 -2.20195044 9.37127785 -2.5625 14.625 C-2.64628906 15.81351563 -2.73007813 17.00203125 -2.81640625 18.2265625 C-2.87699219 19.14179687 -2.93757813 20.05703125 -3 21 C-3.66 21 -4.32 21 -5 21 C-5.84747519 15.91514887 -6.49833185 11.14942917 -6 6 C-3.5625 3.0625 -3.5625 3.0625 -1 1 C-0.67 0.67 -0.34 0.34 0 0 Z " fill="#CCFEF6" transform="translate(90,82)"/>
<path d="M0 0 C0.99 0.33 1.98 0.66 3 1 C1.74821404 3.50357192 0.00018842 5.06433379 -2 7 C-1.01 7.33 -0.02 7.66 1 8 C0.67 9.32 0.34 10.64 0 12 C-1.9375 11.625 -1.9375 11.625 -4 11 C-4.33 10.34 -4.66 9.68 -5 9 C-6.1446875 10.2065625 -6.1446875 10.2065625 -7.3125 11.4375 C-10 14 -10 14 -13 15 C-11.71480435 12.13302508 -10.42870746 10.02392288 -8 8 C-7.34 8 -6.68 8 -6 8 C-6 7.34 -6 6.68 -6 6 C-4.37550757 4.29220027 -2.70779973 2.62449243 -1 1 C-0.67 0.67 -0.34 0.34 0 0 Z " fill="#DEDEDE" transform="translate(150,148)"/>
<path d="M0 0 C0.99 0.33 1.98 0.66 3 1 C1.85056399 4.10347722 0.67532234 5.26941338 -1.9375 7.4375 C-4.85314189 9.87711872 -6.09919148 11.80318568 -8 15 C-10.54017963 16.63882557 -13.05678651 17.36931139 -16 18 C-14.71937515 16.2925002 -13.38232443 14.62626404 -12 13 C-11.34 13 -10.68 13 -10 13 C-9.74347656 12.40316406 -9.48695313 11.80632813 -9.22265625 11.19140625 C-7.88899816 8.80104782 -6.57948606 7.61442019 -4.4375 5.9375 C-1.80562347 3.87467786 -1.09567461 3.28702382 0 0 Z " fill="#C7C7C7" transform="translate(155,28)"/>
<path d="M0 0 C4.95 0 9.9 0 15 0 C15.33 0.66 15.66 1.32 16 2 C18.01669827 3.13350534 18.01669827 3.13350534 20 4 C20 4.66 20 5.32 20 6 C20.66 6 21.32 6 22 6 C21.67 6.99 21.34 7.98 21 9 C21 8.34 21 7.68 21 7 C20.21625 6.71125 19.4325 6.4225 18.625 6.125 C16 5 16 5 14 3 C10.64255888 2.75622117 10.64255888 2.75622117 6.875 2.875 C5.59367187 2.89304687 4.31234375 2.91109375 2.9921875 2.9296875 C2.00476563 2.95289062 1.01734375 2.97609375 0 3 C0 2.01 0 1.02 0 0 Z " fill="#C7FEF5" transform="translate(94,79)"/>
<path d="M0 0 C0.93423645 3.01031744 1.04449911 3.86650268 0 7 C-2.5625 8.1875 -2.5625 8.1875 -5 9 C-5 9.66 -5 10.32 -5 11 C-6.32 10.34 -7.64 9.68 -9 9 C-6 6 -3 3 0 0 Z " fill="#E4E4E4" transform="translate(161,138)"/>
<path d="M0 0 C0.99 0.33 1.98 0.66 3 1 C2.2884375 1.61875 2.2884375 1.61875 1.5625 2.25 C-0.16266518 4.182185 -0.56584875 5.48192275 -1 8 C-2.32 8 -3.64 8 -5 8 C-5.99 9.485 -5.99 9.485 -7 11 C-7.99 11.495 -7.99 11.495 -9 12 C-9.66 11.34 -10.32 10.68 -11 10 C-7.5103248 6.40768729 -4.03355127 2.98132051 0 0 Z " fill="#DDDDDD" transform="translate(134,51)"/>
<path d="M0 0 C0.33 1.32 0.66 2.64 1 4 C-0.375 5.625 -0.375 5.625 -2 7 C-2.33 7.66 -2.66 8.32 -3 9 C-3.61875 9.144375 -4.2375 9.28875 -4.875 9.4375 C-7.36710392 10.09717457 -8.3329446 11.08288629 -10 13 C-10.66 12.67 -11.32 12.34 -12 12 C-8.04 8.04 -4.08 4.08 0 0 Z " fill="#1F1F1F" transform="translate(62,148)"/>
<path d="M0 0 C0.66 0 1.32 0 2 0 C1.91433603 2.912575 1.42089045 4.56798024 -0.625 6.66796875 C-2.38391375 8.16091772 -4.16313019 9.60436262 -6 11 C-6.66 9.68 -7.32 8.36 -8 7 C-7.34 6.34 -6.68 5.68 -6 5 C-5.34 5.33 -4.68 5.66 -4 6 C-4 5.34 -4 4.68 -4 4 C-2.35 3.67 -0.7 3.34 1 3 C0.67 2.01 0.34 1.02 0 0 Z " fill="#E9E9E9" transform="translate(80,125)"/>
<path d="M0 0 C0.66 0 1.32 0 2 0 C0.65365543 4.4062186 -1.19374374 6.43077702 -5 9 C-5.66 9 -6.32 9 -7 9 C-5.71480435 6.13302508 -4.42870746 4.02392288 -2 2 C-1.34 2 -0.68 2 0 2 C0 1.34 0 0.68 0 0 Z " fill="#BEBEBE" transform="translate(144,154)"/>
<path d="M0 0 C0.86625 0.556875 0.86625 0.556875 1.75 1.125 C0.76 2.445 -0.23 3.765 -1.25 5.125 C-1.58 4.465 -1.91 3.805 -2.25 3.125 C-3.24 3.785 -4.23 4.445 -5.25 5.125 C-5.58 3.805 -5.91 2.485 -6.25 1.125 C-2.80384615 -1.09038462 -2.80384615 -1.09038462 0 0 Z " fill="#E6E6E6" transform="translate(143.25,45.875)"/>
<path d="M0 0 C0.99 0.33 1.98 0.66 3 1 C1.40758592 5.29951803 -1.35540725 7.39671947 -5 10 C-5.99 9.67 -6.98 9.34 -8 9 C-7.50628906 8.60167969 -7.01257813 8.20335937 -6.50390625 7.79296875 C-5.86324219 7.26316406 -5.22257813 6.73335937 -4.5625 6.1875 C-3.92441406 5.66542969 -3.28632813 5.14335938 -2.62890625 4.60546875 C-0.7451725 2.99165589 -0.7451725 2.99165589 0 0 Z " fill="#DBDBDB" transform="translate(155,28)"/>
<path d="M0 0 C0.33 0.99 0.66 1.98 1 3 C-0.65 4.32 -2.3 5.64 -4 7 C-4.33 5.68 -4.66 4.36 -5 3 C-3.35 2.01 -1.7 1.02 0 0 Z " fill="#E8E8E8" transform="translate(61,146)"/>
<path d="M0 0 C1.37810527 2.75621054 0.97919884 5.09263335 0.83984375 8.125 C0.81834421 10.24791868 0.81834421 10.24791868 3 12 C2.67 12.99 2.34 13.98 2 15 C-0.76228674 11.88152365 -1.37243224 9.95683144 -1.25 5.8125 C-1.23453125 4.93207031 -1.2190625 4.05164063 -1.203125 3.14453125 C-1 1 -1 1 0 0 Z " fill="#27E9B0" transform="translate(89,91)"/>
<path d="M0 0 C0.33 0.66 0.66 1.32 1 2 C1.66 2.33 2.32 2.66 3 3 C1.7934375 3.433125 1.7934375 3.433125 0.5625 3.875 C-2.1326468 4.73262568 -2.1326468 4.73262568 -3 7 C-3.66 6.34 -4.32 5.68 -5 5 C-3.35 3.35 -1.7 1.7 0 0 Z " fill="#0F0F0F" transform="translate(70,140)"/>
<path d="M0 0 C4.875 4.75 4.875 4.75 6 7 C2.9168649 5.80100302 -0.06279492 4.52299523 -3 3 C-2.67 2.34 -2.34 1.68 -2 1 C-1.34 1.33 -0.68 1.66 0 2 C0 1.34 0 0.68 0 0 Z " fill="#A7F6E2" transform="translate(87,101)"/>
<path d="M0 0 C0.5625 1.9375 0.5625 1.9375 1 4 C0.67 4.33 0.34 4.66 0 5 C-0.23192865 6.51469448 -0.41215238 8.03754562 -0.5625 9.5625 C-0.64628906 10.38878906 -0.73007813 11.21507813 -0.81640625 12.06640625 C-0.87699219 12.70449219 -0.93757813 13.34257813 -1 14 C-1.33 14 -1.66 14 -2 14 C-2.05410687 12.22950311 -2.09284119 10.45853151 -2.125 8.6875 C-2.14820312 7.70136719 -2.17140625 6.71523437 -2.1953125 5.69921875 C-2 3 -2 3 0 0 Z " fill="#56E5BC" transform="translate(89,87)"/>
<path d="M0 0 C2.375 0.25 2.375 0.25 5 1 C6.3125 3.0625 6.3125 3.0625 7 5 C4.0625 4.1875 4.0625 4.1875 1 3 C0.67 2.01 0.34 1.02 0 0 Z " fill="#2AEDB4" transform="translate(107,83)"/>
<path d="M0 0 C1.98 0.66 3.96 1.32 6 2 C6 2.66 6 3.32 6 4 C6.66 4 7.32 4 8 4 C7.67 4.99 7.34 5.98 7 7 C7 6.34 7 5.68 7 5 C6.21625 4.731875 5.4325 4.46375 4.625 4.1875 C2 3 2 3 0 0 Z " fill="#ABFDE8" transform="translate(108,81)"/>
</svg>
